<svg xmlns="http://www.w3.org/2000/svg" viewBox="0 0 161 161"><defs><style>.cls-1{fill:#f39200;}.cls-2{fill:#fff;}</style></defs><title>Gatewei Logo</title><g id="Ebene_2" data-name="Ebene 2"><g id="Ebene_1-2" data-name="Ebene 1"><circle class="cls-1" cx="80.5" cy="80.5" r="80.5"/><path class="cls-2" d="M63.94,45.8V99.21H44.24v8.73h-6V45.8ZM58.06,52H44.24V93.14H58.06ZM99,92.16a53.36,53.36,0,0,0,6.47,13.52,112.51,112.51,0,0,0,14.21-10l5.09,5.2a2.31,2.31,0,0,1-2,.39,137.62,137.62,0,0,1-14.12,8.63,40.86,40.86,0,0,0,18.53,12.93,27.1,27.1,0,0,0-4.22,5.29c-14.9-6.07-24.7-18.81-29.89-36H81.78v26.16l19.89-3.43.3,5.39c-11.86,2.36-24.21,4.81-31.95,6.18a1.81,1.81,0,0,1-1.38,1.37c-.39-.78-.78-1.67-2.84-7.06,2.75-.39,6.08-.88,9.61-1.47V92.16H66.59v-6h59.49v6Zm21.46-51.07V77.75H72.27V41.09Zm-42.34,5.3V56.87H93V46.39Zm0,15.48V72.46H93V61.87Zm36.26-5V46.39H98.83V56.87Zm0,15.59V61.87H98.83V72.46Z"/></g></g></svg>